<?xml version="1.0" encoding="utf-8"?>
<!-- Generator: Adobe Illustrator 23.0.3, SVG Export Plug-In . SVG Version: 6.00 Build 0)  -->
<svg version="1.1" id="Layer_1" xmlns="http://www.w3.org/2000/svg" xmlns:xlink="http://www.w3.org/1999/xlink" x="0px" y="0px"
	 viewBox="0 0 1057.2 553.8" style="enable-background:new 0 0 1057.2 553.8;" xml:space="preserve">
<style type="text/css">
	.st0{fill:#F9DD8F;}
	.st1{fill:none;stroke:#000000;stroke-width:3;stroke-linecap:round;stroke-miterlimit:10;}
	.st2{fill:none;stroke:#000000;stroke-width:7;stroke-linecap:round;stroke-miterlimit:10;}
	.st3{fill:#F7F7F7;stroke:#000000;stroke-width:7;stroke-miterlimit:10;}
	.st4{font-family:'Modern-Regular';}
	.st5{font-size:44px;}
</style>
<rect class="st0" width="1057.2" height="553.8"/>
<g>
	<g>
		<path d="M-216.3,199c0,0,128,5,137,54h-121C-200.3,253-201.3,203-216.3,199z"/>
		<path d="M-216.3,307c0,0,128-5,137-54h-121C-200.3,253-201.3,303-216.3,307z"/>
	</g>
	<g>
		<g>
			<rect x="-222.8" y="0" width="110.5" height="112.5"/>
			<ellipse cx="-112.8" cy="55.9" rx="27" ry="55.9"/>
		</g>
		<g>
			<path d="M-209.8,398c0,0,128,5,137,54h-121C-193.8,452-194.8,402-209.8,398z"/>
			<path d="M-209.8,506c0,0,128-5,137-54h-121C-193.8,452-194.8,502-209.8,506z"/>
			<path class="st1" d="M-221.8,398c9.9,0,18,24.2,18,54"/>
			<path class="st1" d="M-221.8,506c9.9,0,18-24.2,18-54"/>
		</g>
	</g>
	<text transform="matrix(1 0 0 1 -389.1105 479.1172)" style="font-family:'MyriadPro-Regular'; font-size:66.9128px;">XOR</text>
	<text transform="matrix(1 0 0 1 -370.0068 272.1172)" style="font-family:'MyriadPro-Regular'; font-size:66.9128px;">OR</text>
	<text transform="matrix(1 0 0 1 -393.7266 78.1171)" style="font-family:'MyriadPro-Regular'; font-size:66.9128px;">AND</text>
</g>
<g>
	<polygon points="-103.8,611.7 -202.6,554.7 -202.6,668.7 	"/>
	<circle cx="-90.4" cy="611.7" r="13.4"/>
</g>
<rect x="1402.4" y="29.5" width="106.4" height="112"/>
<circle cx="1508.8" cy="85.5" r="56"/>
<ellipse cx="1436.5" cy="356.2" rx="128.3" ry="56"/>
<circle cx="1414.1" cy="356.2" r="56"/>
<g>
	<polygon points="2407.4,117.5 2506.1,60.5 2407.4,3.5 	"/>
	<ellipse transform="matrix(0.3827 -0.9239 0.9239 0.3827 1499.5266 2365.1101)" cx="2519.6" cy="60.5" rx="13.4" ry="13.4"/>
</g>
<path d="M2021.9,11.9h-106.4v112h106.4c30.9,0,56-25.1,56-56C2077.9,36.9,2052.8,11.9,2021.9,11.9z"/>
<path d="M2077.9,338.5c0,30.9-57.4,56-128.3,56c-0.9,0-1.8,0-2.7,0c-1.9,0-2.4-2.7-0.6-3.3c21.5-7.8,36.9-28.4,36.9-52.7
	c0-24.2-15.4-44.8-36.9-52.7c-1.8-0.7-1.3-3.3,0.6-3.3c0.9,0,1.8,0,2.7,0C2020.5,282.5,2077.9,307.6,2077.9,338.5z"/>
<path d="M2536.6,338.5c0,30.9-57.4,56-128.3,56c-0.9,0-1.8,0-2.7,0c-1.9,0-2.4-2.7-0.6-3.3c21.5-7.8,36.9-28.4,36.9-52.7
	c0-24.2-15.4-44.8-36.9-52.7c-1.8-0.7-1.3-3.3,0.6-3.3c0.9,0,1.8,0,2.7,0C2479.1,282.5,2536.6,307.6,2536.6,338.5z"/>
<g>
	<g>
		<path class="st2" d="M684.2,333.7c19.8,0,35.8,19.8,35.8,44.2s-16,44.2-35.8,44.2"/>
		<g>
			<polygon class="st3" points="709.7,156.8 808.5,99.8 709.7,42.8 			"/>
			
				<ellipse transform="matrix(0.3827 -0.9239 0.9239 0.3827 417.3152 824.9033)" class="st3" cx="825.9" cy="100.2" rx="13.4" ry="13.4"/>
		</g>
		<path class="st3" d="M324.2,51.2H217.8v112h106.4c30.9,0,56-25.1,56-56C380.2,76.3,355.1,51.2,324.2,51.2z"/>
		<path class="st3" d="M365.4,377.9c0,30.9-57.4,56-128.3,56c-0.9,0-1.8,0-2.7,0c-1.9,0-2.4-2.7-0.6-3.3
			c21.5-7.8,36.9-28.4,36.9-52.7c0-24.2-15.4-44.8-36.9-52.7c-1.8-0.7-1.3-3.3,0.6-3.3c0.9,0,1.8,0,2.7,0
			C307.9,321.9,365.4,347,365.4,377.9z"/>
		<path class="st3" d="M838.9,377.9c0,30.9-57.4,56-128.3,56c-0.9,0-1.8,0-2.7,0c-1.9,0-2.4-2.7-0.6-3.3
			c21.5-7.8,36.9-28.4,36.9-52.7c0-24.2-15.4-44.8-36.9-52.7c-1.8-0.7-1.3-3.3,0.6-3.3c0.9,0,1.8,0,2.7,0
			C781.4,321.9,838.9,347,838.9,377.9z"/>
	</g>
	<text transform="matrix(1 0 0 1 247.5192 235.98)" class="st4 st5">AND</text>
	<text transform="matrix(1 0 0 1 725.6665 235.98)" class="st4 st5">NOT</text>
	<text transform="matrix(1 0 0 1 725.6665 501.7578)" class="st4 st5">XOR</text>
	<text transform="matrix(1 0 0 1 247.5189 501.7578)" class="st4 st5">OR</text>
</g>
</svg>
